<svg width="48" height="29" viewBox="0 0 48 29" fill="none" xmlns="http://www.w3.org/2000/svg">
<path d="M13.7653 10.6755C13.7653 11.2507 13.8275 11.7171 13.9363 12.0591C14.0607 12.4012 14.2162 12.7743 14.4338 13.1785C14.5116 13.3028 14.5427 13.4272 14.5427 13.536C14.5427 13.6915 14.4494 13.847 14.2473 14.0024L13.2679 14.6554C13.1279 14.7487 12.988 14.7953 12.8636 14.7953C12.7082 14.7953 12.5527 14.7176 12.3973 14.5776C12.1796 14.3444 11.993 14.0957 11.8376 13.847C11.6821 13.5827 11.5267 13.2873 11.3556 12.9297C10.143 14.36 8.61948 15.0751 6.78501 15.0751C5.47911 15.0751 4.4375 14.702 3.67573 13.9558C2.91396 13.2096 2.5253 12.2146 2.5253 10.9709C2.5253 9.64944 2.99169 8.57674 3.94002 7.76833C4.88835 6.95992 6.14761 6.55571 7.74888 6.55571C8.27746 6.55571 8.82158 6.60235 9.3968 6.68008C9.97202 6.75781 10.5628 6.88218 11.1846 7.0221V5.88722C11.1846 4.70569 10.9359 3.88173 10.454 3.39979C9.95647 2.91786 9.11697 2.68466 7.91989 2.68466C7.37577 2.68466 6.8161 2.74685 6.24089 2.88676C5.66567 3.02668 5.106 3.19769 4.56188 3.41534C4.31313 3.52416 4.12658 3.58635 4.01775 3.61744C3.90893 3.64854 3.8312 3.66408 3.76901 3.66408C3.55136 3.66408 3.44254 3.50862 3.44254 3.18214V2.42037C3.44254 2.17163 3.47363 1.98507 3.55136 1.87625C3.62909 1.76742 3.76901 1.6586 3.98666 1.54977C4.53078 1.26994 5.18373 1.03674 5.9455 0.850186C6.70728 0.648083 7.51569 0.554805 8.37074 0.554805C10.2208 0.554805 11.5733 0.974557 12.4439 1.81406C13.2989 2.65357 13.7342 3.92837 13.7342 5.63847V10.6755H13.7653ZM7.4535 13.0386C7.96653 13.0386 8.49511 12.9453 9.05478 12.7587C9.61445 12.5722 10.1119 12.2301 10.5317 11.7638C10.7804 11.4684 10.967 11.1419 11.0603 10.7688C11.1535 10.3957 11.2157 9.94482 11.2157 9.41625V8.7633C10.7649 8.65447 10.2829 8.56119 9.78546 8.49901C9.28798 8.43682 8.80604 8.40573 8.3241 8.40573C7.28249 8.40573 6.52072 8.60783 6.00769 9.02759C5.49466 9.44734 5.24592 10.0381 5.24592 10.8154C5.24592 11.5461 5.43247 12.0902 5.82113 12.4633C6.19425 12.852 6.73837 13.0386 7.4535 13.0386ZM19.9373 14.7176C19.6574 14.7176 19.4709 14.6709 19.3465 14.5621C19.2221 14.4688 19.1133 14.2512 19.02 13.9558L15.3666 1.93843C15.2733 1.62751 15.2267 1.4254 15.2267 1.31658C15.2267 1.06784 15.3511 0.927918 15.5998 0.927918H17.1234C17.4187 0.927918 17.6208 0.974557 17.7297 1.08338C17.854 1.17666 17.9473 1.39431 18.0406 1.68969L20.6524 11.9814L23.0776 1.68969C23.1554 1.37876 23.2486 1.17666 23.373 1.08338C23.4974 0.990104 23.715 0.927918 23.9949 0.927918H25.2386C25.5339 0.927918 25.7361 0.974557 25.8604 1.08338C25.9848 1.17666 26.0936 1.39431 26.1558 1.68969L28.6121 12.1058L31.3017 1.68969C31.3949 1.37876 31.5038 1.17666 31.6126 1.08338C31.737 0.990104 31.9391 0.927918 32.2189 0.927918H33.6647C33.9135 0.927918 34.0534 1.05229 34.0534 1.31658C34.0534 1.39431 34.0378 1.47204 34.0223 1.56532C34.0067 1.6586 33.9756 1.78297 33.9135 1.95398L30.1668 13.9713C30.0735 14.2823 29.9647 14.4844 29.8403 14.5776C29.7159 14.6709 29.5138 14.7331 29.2495 14.7331H27.9125C27.6172 14.7331 27.4151 14.6865 27.2907 14.5776C27.1663 14.4688 27.0575 14.2667 26.9953 13.9558L24.5856 3.92837L22.1915 13.9402C22.1137 14.2512 22.0205 14.4533 21.8961 14.5621C21.7717 14.6709 21.5541 14.7176 21.2742 14.7176H19.9373ZM39.9144 15.1373C39.1059 15.1373 38.2975 15.044 37.5202 14.8575C36.7429 14.6709 36.1366 14.4688 35.7324 14.2356C35.4836 14.0957 35.3126 13.9402 35.2504 13.8003C35.1883 13.6604 35.1572 13.5049 35.1572 13.365V12.5722C35.1572 12.2457 35.2815 12.0902 35.5147 12.0902C35.608 12.0902 35.7013 12.1058 35.7946 12.1369C35.8878 12.168 36.0278 12.2301 36.1832 12.2923C36.7118 12.5255 37.287 12.7121 37.8933 12.8365C38.5152 12.9608 39.1215 13.023 39.7433 13.023C40.7228 13.023 41.4845 12.852 42.0131 12.51C42.5417 12.168 42.8215 11.6705 42.8215 11.0331C42.8215 10.5978 42.6816 10.2402 42.4018 9.94482C42.1219 9.64944 41.5934 9.38515 40.8316 9.13641L38.5774 8.43682C37.4425 8.07926 36.603 7.55068 36.0899 6.85109C35.5769 6.16705 35.3126 5.40528 35.3126 4.59687C35.3126 3.94392 35.4525 3.3687 35.7324 2.87122C36.0122 2.37373 36.3853 1.93843 36.8517 1.59641C37.3181 1.23885 37.8467 0.974557 38.4685 0.788001C39.0904 0.601444 39.7433 0.523712 40.4274 0.523712C40.7694 0.523712 41.127 0.539259 41.469 0.585898C41.8266 0.632537 42.153 0.694722 42.4795 0.756908C42.7904 0.83464 43.0858 0.912372 43.3657 1.00565C43.6455 1.09893 43.8631 1.19221 44.0186 1.28549C44.2363 1.40986 44.3917 1.53423 44.485 1.67414C44.5783 1.79852 44.6249 1.96953 44.6249 2.18718V2.91786C44.6249 3.24433 44.5005 3.41534 44.2673 3.41534C44.143 3.41534 43.9409 3.35315 43.6766 3.22878C42.7904 2.82458 41.7955 2.62247 40.6917 2.62247C39.8055 2.62247 39.1059 2.76239 38.624 3.05777C38.1421 3.35315 37.8933 3.804 37.8933 4.4414C37.8933 4.8767 38.0488 5.24981 38.3597 5.5452C38.6706 5.84058 39.2459 6.13596 40.0698 6.40025L42.2774 7.09983C43.3967 7.4574 44.2052 7.95489 44.6871 8.59229C45.169 9.22969 45.4022 9.96037 45.4022 10.7688C45.4022 11.4373 45.2623 12.0436 44.998 12.5722C44.7182 13.1007 44.3451 13.5671 43.8631 13.9402C43.3812 14.3289 42.806 14.6087 42.1375 14.8108C41.4379 15.0285 40.7072 15.1373 39.9144 15.1373Z" fill="#232F3E"/>
<path fill-rule="evenodd" clip-rule="evenodd" d="M42.8526 22.6925C37.7378 26.4703 30.3066 28.4758 23.9171 28.4758C14.9624 28.4758 6.89379 25.1644 0.79961 19.661C0.317672 19.2257 0.752971 18.6349 1.32819 18.977C7.91985 22.8014 16.0506 25.1178 24.4612 25.1178C30.1356 25.1178 36.3697 23.9363 42.1064 21.511C42.9614 21.1224 43.6921 22.0707 42.8526 22.6925Z" fill="#FF9900"/>
<path fill-rule="evenodd" clip-rule="evenodd" d="M44.9823 20.2678C44.3293 19.4283 40.6604 19.8636 38.9969 20.0657C38.4994 20.1279 38.4217 19.6926 38.8725 19.3661C41.7953 17.314 46.5991 17.9047 47.1588 18.5888C47.7184 19.2884 47.0033 24.0922 44.2671 26.3931C43.8474 26.7506 43.4432 26.5641 43.6297 26.0977C44.2516 24.5586 45.6352 21.0917 44.9823 20.2678Z" fill="#FF9900"/>
</svg>
