<?xml version="1.0" encoding="UTF-8"?>
<svg xmlns="http://www.w3.org/2000/svg" width="879" height="212" viewBox="0 0 879 212" fill="none">
  <circle cx="25.29" cy="184.90" r="17.00" fill="#0101ff"/>
  <path fill="#0c1424" fill-rule="evenodd" d="M 44.243 75.250 C 44.584 141.625, 44.618 142.596, 46.838 149.893 C 52.275 167.768, 62.072 181.494, 76.325 191.207 C 103.422 209.672, 141.318 206.938, 165.507 184.772 C 184.378 167.480, 192.609 142.596, 187.979 116.828 C 182.997 89.096, 161.466 66.467, 134.312 60.426 C 124.069 58.147, 107.870 58.830, 99 61.915 C 90.854 64.748, 81.913 70.107, 75.750 75.848 L 71 80.274 71 44.137 L 71 8 57.448 8 L 43.896 8 44.243 75.250 M 354.239 75.750 C 354.592 150.790, 354.333 147.646, 361.388 162.500 C 370.594 181.886, 388.603 196.532, 409.500 201.627 C 418.681 203.866, 434.319 203.866, 443.500 201.627 C 471.088 194.900, 493.230 171.313, 498.075 143.489 C 499.680 134.276, 498.687 118.395, 495.951 109.500 C 489.840 89.637, 476.278 73.723, 458.332 65.357 C 433.968 53.999, 404.341 58.049, 385.750 75.280 L 381 79.682 381 43.841 L 381 8 367.461 8 L 353.921 8 354.239 75.750 M 516 74.686 C 516 147.637, 515.969 147.200, 522.012 160.637 C 532.670 184.337, 553.218 199.324, 580.202 203.079 C 611.054 207.372, 643.168 188.101, 655.462 157.916 C 668.571 125.731, 655.408 85.725, 626.092 68.655 C 613.120 61.101, 602.115 58.475, 586.746 59.265 C 570.748 60.087, 558.207 65.316, 546.623 75.993 L 542.486 79.807 542.552 45.154 C 542.588 26.094, 542.431 9.938, 542.202 9.250 C 541.898 8.336, 538.319 8, 528.893 8 L 516 8 516 74.686 M 682 104 L 682 200 696.500 200 L 711 200 711 104 L 711 8 696.500 8 L 682 8 682 104 M 785.179 60.945 C 775.250 63.384, 762.697 69.803, 755.808 75.965 C 734.766 94.786, 727.313 128.088, 737.442 158.025 C 742.862 174.048, 754.750 187.841, 769.275 194.959 C 782.200 201.293, 788.089 202.501, 806 202.492 C 822.534 202.484, 829.269 201.385, 842.890 196.471 C 851.928 193.212, 866 185.410, 866 183.660 C 866 182.689, 854.982 163, 854.439 163 C 854.246 163, 851.920 164.279, 849.269 165.841 C 836.863 173.157, 822.379 177.096, 807.577 177.183 C 786.447 177.306, 772.625 168.784, 765.379 151.169 C 764.097 148.051, 763.037 144.938, 763.024 144.250 C 763.005 143.265, 774.335 143, 816.407 143 L 869.813 143 870.512 133.682 C 872.815 102.967, 858.798 76.692, 833.894 65.038 C 821.096 59.049, 800.088 57.284, 785.179 60.945 M 207 105.058 C 207 131.675, 207.425 150.863, 208.112 155.308 C 211.541 177.489, 224.322 193.344, 244 199.830 C 262.840 206.040, 284.950 204.474, 301.274 195.773 C 308.635 191.850, 317.892 182, 321.912 173.814 C 327.595 162.242, 327.963 158.231, 327.983 107.750 L 328 62 313.538 62 L 299.076 62 298.788 108.250 C 298.503 154.093, 298.480 154.544, 296.201 159.500 C 290.947 170.924, 281.852 176.354, 268 176.337 C 253.554 176.319, 245.429 171.677, 239.785 160.217 L 236.500 153.547 236.195 107.774 L 235.889 62 221.445 62 L 207 62 207 105.058 M 794 85.369 C 785.840 87.152, 779.358 90.828, 773.960 96.734 C 768.918 102.251, 764.477 110.241, 763.391 115.750 L 762.750 119 802.003 119 L 841.256 119 840.617 115.004 C 838.339 100.760, 825.307 87.786, 810.566 85.087 C 803.396 83.774, 801.126 83.812, 794 85.369 M 106.604 88.593 C 84.137 94.030, 69.525 116.659, 73.952 139.160 C 78.982 164.730, 104.782 180.565, 129.145 173.036 C 150.558 166.418, 163.886 145.355, 160.092 124.128 C 158.410 114.715, 155.267 108.483, 148.537 101.213 C 142.248 94.420, 134.432 90.030, 125.201 88.105 C 118.440 86.695, 113.963 86.813, 106.604 88.593 M 418.108 88.021 C 404.905 90.796, 392.411 100.627, 386.689 112.745 C 383.678 119.124, 383.500 120.141, 383.508 131 C 383.516 141.902, 383.683 142.842, 386.723 149.069 C 400.771 177.849, 437.010 183.871, 458.418 160.984 C 479.821 138.102, 470.647 100.028, 441.296 89.930 C 434.522 87.599, 424.172 86.747, 418.108 88.021 M 578.500 88.325 C 575.750 89.029, 571.250 90.705, 568.500 92.049 C 561.530 95.456, 551.535 105.591, 548.407 112.422 C 539.286 132.344, 545.770 155.232, 564.010 167.507 C 586.996 182.975, 618.669 172.889, 629 146.810 C 632.401 138.226, 632.459 124.305, 629.130 115.808 C 624.322 103.537, 613.328 92.996, 601.649 89.458 C 594.507 87.294, 584.445 86.802, 578.500 88.325 M 23.762 167.707 C 25.006 167.946, 26.806 167.937, 27.762 167.687 C 28.718 167.437, 27.700 167.241, 25.500 167.252 C 23.300 167.263, 22.518 167.468, 23.762 167.707 M 31.083 168.365 C 31.313 168.565, 32.625 169.265, 34 169.920 C 36.357 171.042, 36.389 171.022, 34.559 169.555 C 32.966 168.279, 29.711 167.164, 31.083 168.365 M 12.104 173.535 C 10.397 175.479, 9.014 177.616, 9.030 178.285 C 9.047 178.953, 9.557 178.600, 10.164 177.500 C 10.771 176.400, 12.417 174.262, 13.821 172.750 C 15.225 171.238, 16.112 170, 15.791 170 C 15.470 170, 13.811 171.591, 12.104 173.535 M 43.286 185.500 C 43.294 188.250, 43.488 189.256, 43.718 187.736 C 43.947 186.216, 43.941 183.966, 43.704 182.736 C 43.467 181.506, 43.279 182.750, 43.286 185.500 M 40.736 194.256 L 38.971 197.500 40.986 195.139 C 42.700 193.130, 43.616 190.984, 42.750 191.006 C 42.612 191.010, 41.706 192.472, 40.736 194.256 M 14.757 199.750 C 16.052 200.988, 17.649 201.986, 18.306 201.970 C 18.963 201.953, 18.600 201.440, 17.500 200.830 C 16.400 200.219, 14.803 199.221, 13.951 198.610 C 13.099 198, 13.462 198.512, 14.757 199.750"/>
</svg>
