<svg width="132" height="29" viewBox="0 0 132 29" fill="none" xmlns="http://www.w3.org/2000/svg">
<path d="M14.1822 0.500275H0.874817V13.8049H14.1822V0.500275Z" fill="#F25022"/>
<path d="M28.8748 0.500031H15.5676V13.8045H28.8748V0.500031Z" fill="#7FBA00"/>
<path d="M14.182 15.1956H0.874817V28.5H14.182V15.1956Z" fill="#00A4EF"/>
<path d="M28.8748 15.1956H15.5676V28.5H28.8748V15.1956Z" fill="#FFB900"/>
<path d="M47.0831 16.6066L46.2982 18.8027H46.2536C46.1134 18.2881 45.8785 17.5582 45.5107 16.6305L41.311 6.09567H37.205V22.845H39.913V12.5486C39.913 11.9131 39.8993 11.145 39.8726 10.2662C39.8588 9.82133 39.8081 9.46509 39.7959 9.19348H39.8554C39.993 9.82478 40.1361 10.3054 40.2393 10.627L45.2752 22.845H47.1694L52.1678 10.5167C52.2813 10.2356 52.4014 9.68709 52.512 9.19348H52.5714C52.5059 10.4136 52.4505 11.5288 52.443 12.2016V22.845H55.3318V6.09567H51.3888L47.0831 16.6066Z" fill="white"/>
<path d="M60.8753 10.8415H58.0517V22.8445H60.8753V10.8415Z" fill="white"/>
<path d="M59.4926 5.74033C59.0274 5.74033 58.6229 5.8993 58.2897 6.21195C57.9554 6.52612 57.7859 6.92257 57.7859 7.38972C57.7859 7.84919 57.9535 8.23759 58.2841 8.54397C58.6133 8.8492 59.0201 9.0037 59.4926 9.0037C59.9653 9.0037 60.3737 8.8492 60.7066 8.54441C61.0416 8.23759 61.2114 7.84919 61.2114 7.38972C61.2114 6.93862 61.0458 6.54703 60.7201 6.22499C60.3944 5.90333 59.9815 5.74033 59.4926 5.74033Z" fill="white"/>
<path d="M70.871 10.7211C70.3279 10.6088 69.7975 10.5519 69.2931 10.5519C67.9973 10.5519 66.8422 10.8294 65.8595 11.3774C64.8747 11.926 64.1126 12.7094 63.5953 13.7059C63.0787 14.7001 62.8171 15.8604 62.8171 17.1549C62.8171 18.2893 63.0713 19.3295 63.5726 20.2471C64.0751 21.1665 64.7857 21.885 65.6855 22.3837C66.5846 22.8811 67.623 23.1339 68.7724 23.1339C70.1141 23.1339 71.2601 22.8656 72.1782 22.3364L72.2155 22.3148V19.7285L72.0968 19.8149C71.6804 20.1181 71.2154 20.3602 70.7155 20.534C70.2162 20.7082 69.7612 20.7966 69.3627 20.7966C68.2548 20.7966 67.3657 20.4498 66.7197 19.7661C66.0728 19.0818 65.7448 18.122 65.7448 16.9124C65.7448 15.6952 66.0863 14.7093 66.7608 13.9824C67.4332 13.2571 68.3243 12.8892 69.409 12.8892C70.3376 12.8892 71.2415 13.2036 72.0968 13.8243L72.2155 13.9102V11.1848L72.1776 11.1631C71.8555 10.983 71.4161 10.8344 70.871 10.7211Z" fill="white"/>
<path d="M80.1743 10.6328C79.4651 10.6328 78.8301 10.8608 78.286 11.3098C77.8087 11.7041 77.464 12.2448 77.1999 12.9197H77.1699V10.8411H74.3466V22.8441H77.1699V16.7039C77.1699 15.6598 77.4068 14.8021 77.8735 14.1547C78.3349 13.5145 78.949 13.1901 79.6997 13.1901C79.9543 13.1901 80.2398 13.2321 80.5488 13.3146C80.8546 13.3972 81.0764 13.4869 81.207 13.5811L81.3259 13.6667V10.8202L81.2802 10.801C81.0176 10.6892 80.6453 10.6328 80.1743 10.6328Z" fill="white"/>
<path d="M87.843 10.5519C85.8633 10.5519 84.2915 11.1318 83.1708 12.276C82.0502 13.4193 81.4825 15.0027 81.4825 16.9818C81.4825 18.861 82.0371 20.3723 83.1304 21.4739C84.224 22.575 85.7125 23.1337 87.5535 23.1337C89.4716 23.1337 91.0129 22.5458 92.1335 21.3861C93.2532 20.2274 93.8212 18.6601 93.8212 16.7268C93.8212 14.8172 93.2883 13.2947 92.2377 12.2011C91.1863 11.1067 89.7074 10.5519 87.843 10.5519ZM90.0879 19.794C89.5574 20.4595 88.7594 20.7964 87.7154 20.7964C86.6782 20.7964 85.8599 20.4528 85.284 19.7751C84.7042 19.094 84.4101 18.1232 84.4101 16.8889C84.4101 15.6167 84.7042 14.6202 85.284 13.9276C85.8608 13.2384 86.6711 12.8894 87.6926 12.8894C88.6832 12.8894 89.4723 13.2229 90.0376 13.8819C90.6056 14.5438 90.8935 15.5323 90.8935 16.8196C90.8935 18.1236 90.6224 19.1239 90.0879 19.794Z" fill="white"/>
<path d="M100.083 15.8009C99.1929 15.4433 98.6225 15.1467 98.3882 14.9199C98.1615 14.6997 98.0461 14.389 98.0461 13.9951C98.0461 13.646 98.1885 13.3661 98.4806 13.1399C98.774 12.9123 99.1833 12.7965 99.6964 12.7965C100.173 12.7965 100.66 12.8717 101.145 13.0192C101.628 13.1664 102.054 13.364 102.409 13.6055L102.526 13.685V11.0749L102.481 11.0556C102.153 10.9153 101.722 10.795 101.197 10.6976C100.674 10.6009 100.201 10.5519 99.7889 10.5519C98.4423 10.5519 97.3288 10.8962 96.4777 11.5753C95.6221 12.2585 95.188 13.1542 95.188 14.2384C95.188 14.8017 95.2818 15.3024 95.4662 15.7261C95.6513 16.1525 95.9388 16.5282 96.3207 16.8427C96.6983 17.1543 97.2834 17.4814 98.0577 17.8146C98.7083 18.0819 99.1939 18.3088 99.5028 18.4876C99.8041 18.6624 100.018 18.8386 100.138 19.0098C100.256 19.1776 100.316 19.4066 100.316 19.6901C100.316 20.4972 99.712 20.889 98.4696 20.889C98.0082 20.889 97.4827 20.793 96.9069 20.6031C96.3304 20.4136 95.7919 20.1408 95.3068 19.7918L95.188 19.7064V22.4586L95.2312 22.4787C95.636 22.6651 96.1455 22.8229 96.7469 22.9468C97.3478 23.071 97.8923 23.1339 98.3649 23.1339C99.8266 23.1339 101.003 22.7875 101.861 22.1048C102.725 21.4174 103.163 20.5005 103.163 19.3781C103.163 18.569 102.927 17.875 102.462 17.3158C102.001 16.7609 101.201 16.251 100.083 15.8009Z" fill="white"/>
<path d="M110.755 10.5519C108.775 10.5519 107.204 11.1318 106.083 12.276C104.962 13.4193 104.394 15.0027 104.394 16.9818C104.394 18.861 104.949 20.3723 106.043 21.4739C107.136 22.575 108.624 23.1337 110.466 23.1337C112.384 23.1337 113.925 22.5458 115.045 21.3861C116.165 20.2274 116.733 18.6601 116.733 16.7268C116.733 14.8172 116.201 13.2947 115.15 12.2011C114.098 11.1067 112.619 10.5519 110.755 10.5519ZM113 19.794C112.47 20.4595 111.671 20.7964 110.628 20.7964C109.59 20.7964 108.772 20.4528 108.196 19.7751C107.616 19.094 107.322 18.1232 107.322 16.8889C107.322 15.6167 107.616 14.6202 108.196 13.9276C108.773 13.2384 109.583 12.8894 110.605 12.8894C111.595 12.8894 112.385 13.2229 112.95 13.8819C113.518 14.5438 113.806 15.5323 113.806 16.8196C113.806 18.1236 113.534 19.1239 113 19.794Z" fill="white"/>
<path d="M131.788 13.144V10.8413H128.929V7.26132L128.832 7.29079L126.147 8.11277L126.094 8.12907V10.8413H121.857V9.33036C121.857 8.62696 122.015 8.08847 122.325 7.72981C122.633 7.37421 123.073 7.19394 123.634 7.19394C124.038 7.19394 124.457 7.28944 124.877 7.47725L124.983 7.5241V5.09876L124.933 5.08111C124.541 4.93985 124.007 4.86832 123.345 4.86832C122.511 4.86832 121.753 5.05056 121.093 5.40961C120.431 5.77007 119.911 6.28439 119.547 6.93819C119.183 7.59097 118.999 8.34506 118.999 9.1797V10.8413H117.008V13.144H118.999V22.8447H121.857V13.144H126.094V19.3087C126.094 21.8471 127.291 23.134 129.653 23.134C130.041 23.134 130.45 23.0886 130.867 22.9992C131.291 22.9077 131.58 22.8163 131.751 22.7189L131.788 22.6974V20.3723L131.672 20.4497C131.517 20.5535 131.324 20.6379 131.097 20.7006C130.869 20.7646 130.68 20.7965 130.533 20.7965C129.979 20.7965 129.57 20.6476 129.316 20.3535C129.059 20.0565 128.929 19.5377 128.929 18.8108V13.144H131.788Z" fill="white"/>
<path d="M47.083 16.6066L46.2981 18.8026H46.2535C46.1133 18.2881 45.8784 17.5581 45.5105 16.6305L41.3109 6.09561H37.2049V22.845H39.9129V12.5486C39.9129 11.9131 39.8992 11.1449 39.8725 10.2661C39.8586 9.82127 39.808 9.46503 39.7957 9.19342H39.8552C39.9929 9.82472 40.1359 10.3053 40.2392 10.6269L45.275 22.845H47.1693L52.1677 10.5167C52.2812 10.2356 52.4012 9.68703 52.5118 9.19342H52.5713C52.5058 10.4136 52.4503 11.5287 52.4429 12.2016V22.845H55.3317V6.09561H51.3887L47.083 16.6066Z" fill="white"/>
<path d="M60.8752 10.8415H58.0516V22.8444H60.8752V10.8415Z" fill="white"/>
<path d="M59.4925 5.74026C59.0273 5.74026 58.6228 5.89924 58.2896 6.21188C57.9553 6.52606 57.7858 6.92251 57.7858 7.38966C57.7858 7.84913 57.9534 8.23752 58.284 8.5439C58.6132 8.84913 59.02 9.00364 59.4925 9.00364C59.9651 9.00364 60.3736 8.84913 60.7065 8.54435C61.0415 8.23752 61.2112 7.84913 61.2112 7.38966C61.2112 6.93856 61.0457 6.54697 60.7199 6.22493C60.3943 5.90327 59.9814 5.74026 59.4925 5.74026Z" fill="white"/>
<path d="M70.8709 10.721C70.3278 10.6087 69.7973 10.5518 69.293 10.5518C67.9972 10.5518 66.8421 10.8293 65.8593 11.3774C64.8746 11.9259 64.1125 12.7093 63.5952 13.7059C63.0786 14.7 62.817 15.8603 62.817 17.1549C62.817 18.2892 63.0712 19.3294 63.5725 20.247C64.075 21.1665 64.7856 21.885 65.6853 22.3836C66.5845 22.8811 67.6228 23.1339 68.7723 23.1339C70.114 23.1339 71.26 22.8656 72.1781 22.3364L72.2154 22.3147V19.7285L72.0966 19.8148C71.6802 20.118 71.2153 20.3601 70.7154 20.534C70.216 20.7081 69.761 20.7965 69.3625 20.7965C68.2546 20.7965 67.3656 20.4498 66.7196 19.7661C66.0727 19.0817 65.7447 18.1219 65.7447 16.9124C65.7447 15.6951 66.0861 14.7093 66.7606 13.9823C67.4331 13.257 68.3242 12.8891 69.4088 12.8891C70.3375 12.8891 71.2414 13.2036 72.0966 13.8242L72.2154 13.9102V11.1847L72.1774 11.163C71.8554 10.983 71.416 10.8343 70.8709 10.721Z" fill="white"/>
<path d="M80.1742 10.6327C79.465 10.6327 78.83 10.8607 78.2859 11.3098C77.8085 11.704 77.4639 12.2447 77.1997 12.9196H77.1698V10.841H74.3465V22.844H77.1698V16.7039C77.1698 15.6597 77.4067 14.802 77.8734 14.1547C78.3347 13.5145 78.9489 13.19 79.6996 13.19C79.9542 13.19 80.2396 13.232 80.5486 13.3146C80.8544 13.3972 81.0763 13.4868 81.2069 13.581L81.3258 13.6666V10.8201L81.28 10.8009C81.0174 10.6892 80.6452 10.6327 80.1742 10.6327Z" fill="white"/>
<path d="M87.8429 10.5518C85.8632 10.5518 84.2914 11.1317 83.1707 12.2759C82.0501 13.4192 81.4824 15.0026 81.4824 16.9817C81.4824 18.8609 82.037 20.3722 83.1303 21.4739C84.2239 22.5749 85.7124 23.1337 87.5533 23.1337C89.4715 23.1337 91.0128 22.5458 92.1334 21.386C93.253 20.2274 93.8211 18.66 93.8211 16.7267C93.8211 14.8172 93.2882 13.2946 92.2376 12.201C91.1862 11.1066 89.7073 10.5518 87.8429 10.5518ZM90.0877 19.794C89.5573 20.4594 88.7593 20.7964 87.7153 20.7964C86.6781 20.7964 85.8598 20.4528 85.2838 19.7751C84.7041 19.094 84.41 18.1231 84.41 16.8888C84.41 15.6167 84.7041 14.6201 85.2838 13.9275C85.8607 13.2384 86.6709 12.8893 87.6924 12.8893C88.6831 12.8893 89.4722 13.2229 90.0375 13.8819C90.6055 14.5437 90.8934 15.5323 90.8934 16.8195C90.8934 18.1235 90.6222 19.1239 90.0877 19.794Z" fill="white"/>
<path d="M100.083 15.8008C99.1927 15.4432 98.6224 15.1466 98.3881 14.9198C98.1614 14.6996 98.046 14.389 98.046 13.995C98.046 13.646 98.1884 13.3661 98.4805 13.1398C98.7739 12.9122 99.1831 12.7965 99.6963 12.7965C100.173 12.7965 100.66 12.8716 101.145 13.0191C101.628 13.1664 102.054 13.3639 102.409 13.6054L102.526 13.685V11.0748L102.481 11.0555C102.153 10.9153 101.722 10.7949 101.197 10.6975C100.674 10.6008 100.201 10.5518 99.7887 10.5518C98.4422 10.5518 97.3286 10.8962 96.4776 11.5753C95.622 12.2584 95.1879 13.1541 95.1879 14.2383C95.1879 14.8016 95.2817 15.3023 95.4661 15.7261C95.6512 16.1524 95.9387 16.5282 96.3206 16.8426C96.6982 17.1542 97.2832 17.4813 98.0576 17.8145C98.7082 18.0819 99.1938 18.3087 99.5026 18.4875C99.804 18.6624 100.018 18.8385 100.138 19.0097C100.256 19.1775 100.316 19.4066 100.316 19.69C100.316 20.4971 99.7119 20.889 98.4695 20.889C98.0081 20.889 97.4826 20.7929 96.9067 20.6031C96.3303 20.4136 95.7918 20.1407 95.3066 19.7917L95.1879 19.7063V22.4585L95.2311 22.4787C95.6358 22.6651 96.1454 22.8228 96.7468 22.9468C97.3477 23.071 97.8922 23.1338 98.3648 23.1338C99.8265 23.1338 101.003 22.7875 101.861 22.1047C102.725 21.4174 103.163 20.5004 103.163 19.378C103.163 18.5689 102.927 17.875 102.462 17.3158C102.001 16.7609 101.2 16.2509 100.083 15.8008Z" fill="white"/>
<path d="M110.755 10.5518C108.775 10.5518 107.204 11.1317 106.083 12.2759C104.962 13.4192 104.394 15.0026 104.394 16.9817C104.394 18.8609 104.949 20.3722 106.043 21.4739C107.136 22.5749 108.624 23.1337 110.466 23.1337C112.384 23.1337 113.925 22.5458 115.045 21.386C116.165 20.2274 116.733 18.66 116.733 16.7267C116.733 14.8172 116.2 13.2946 115.149 12.201C114.098 11.1066 112.619 10.5518 110.755 10.5518ZM113 19.794C112.47 20.4594 111.671 20.7964 110.628 20.7964C109.59 20.7964 108.772 20.4528 108.196 19.7751C107.616 19.094 107.322 18.1231 107.322 16.8888C107.322 15.6167 107.616 14.6201 108.196 13.9275C108.772 13.2384 109.583 12.8893 110.605 12.8893C111.595 12.8893 112.384 13.2229 112.95 13.8819C113.518 14.5437 113.806 15.5323 113.806 16.8195C113.806 18.1235 113.534 19.1239 113 19.794Z" fill="white"/>
<path d="M131.788 13.144V10.8412H128.929V7.26126L128.832 7.29073L126.147 8.1127L126.094 8.129V10.8412H121.857V9.3303C121.857 8.6269 122.015 8.08841 122.325 7.72974C122.633 7.37414 123.073 7.19388 123.634 7.19388C124.038 7.19388 124.457 7.28938 124.877 7.47719L124.982 7.52404V5.0987L124.933 5.08105C124.541 4.93978 124.007 4.86826 123.345 4.86826C122.511 4.86826 121.753 5.0505 121.093 5.40955C120.431 5.77001 119.911 6.28433 119.547 6.93813C119.183 7.59091 118.999 8.345 118.999 9.17963V10.8412H117.008V13.144H118.999V22.8446H121.857V13.144H126.094V19.3086C126.094 21.847 127.291 23.1339 129.653 23.1339C130.041 23.1339 130.45 23.0885 130.867 22.9991C131.291 22.9077 131.58 22.8163 131.75 22.7188L131.788 22.6973V20.3723L131.672 20.4496C131.517 20.5535 131.324 20.6379 131.097 20.7006C130.869 20.7645 130.679 20.7964 130.533 20.7964C129.979 20.7964 129.57 20.6475 129.316 20.3534C129.059 20.0564 128.929 19.5376 128.929 18.8107V13.144H131.788Z" fill="white"/>
</svg>
