<svg width="59" height="42" viewBox="0 0 59 42" fill="none" xmlns="http://www.w3.org/2000/svg">
<g clip-path="url(#clip0_3236_1775)">
<path d="M38.9001 36.6528C44.3516 29.9289 51.2982 25.398 58.9828 24.0853C58.655 22.5197 58.2064 21.0004 57.6486 19.5351C47.9092 20.7629 39.272 27.1451 33.234 36.6528C33.2263 36.6663 33.2167 36.6779 33.2091 36.6914C33.2129 36.6779 33.2167 36.6644 33.2206 36.6528C36.9296 24.8807 43.144 15.1606 50.8573 8.96954C49.7666 7.86337 48.5916 6.84021 47.3419 5.91357C39.6496 11.79 33.3854 21.1374 29.5 32.5428C25.6165 21.1374 19.3504 11.79 11.6582 5.91357C10.4084 6.84021 9.23337 7.86337 8.14269 8.96954C15.856 15.1626 22.0704 24.8807 25.7794 36.6528C25.7833 36.6644 25.7871 36.6779 25.7909 36.6914C25.7833 36.6779 25.7737 36.6663 25.766 36.6528C19.728 27.1451 11.0908 20.7629 1.35137 19.5351C0.793568 21.0004 0.345029 22.5216 0.0172508 24.0853C7.70182 25.398 14.6503 29.9289 20.0999 36.6528H0C0.335445 38.2783 0.803151 39.8555 1.38587 41.3728H57.6141C58.1969 39.8555 58.6626 38.2783 59 36.6528H38.9001Z" fill="#595959"/>
<path d="M33.7268 8.59648C33.7268 12.1023 32.0726 15.2181 29.504 17.193C26.9374 15.2181 25.2812 12.1023 25.2812 8.59648C25.2812 5.09071 26.9355 1.97489 29.504 0C32.0707 1.97489 33.7268 5.09071 33.7268 8.59648Z" fill="#595959"/>
</g>
<defs>
<clipPath id="clip0_3236_1775">
<rect width="59" height="42" fill="white"/>
</clipPath>
</defs>
</svg>
