<svg width="139" height="40" viewBox="0 0 139 40" fill="none" xmlns="http://www.w3.org/2000/svg">
<g clip-path="url(#clip0_2670_9504)">
<path d="M2.15503 25.4876L11.2889 30.7509V20.168L2.15503 14.9055V25.4876Z" fill="#0586AA"/>
<path d="M23.7493 26.3363V36.908L42.8175 25.9358L33.6375 20.6465L23.7493 26.3363Z" fill="#938A93"/>
<path d="M43.57 24.4662V14.9314L35.2898 19.6953L43.57 24.4662Z" fill="#938A93"/>
<path d="M52.0846 15.912H55.5697V25.4112H58.0095V15.912H61.4789V13.8677H52.0846V15.912Z" fill="#282828"/>
<path d="M72.1719 24.4636C72.1301 24.2755 72.1092 23.9183 72.1092 23.3903V22.6153C72.1092 21.8064 71.9977 21.2047 71.7747 20.8103C71.5518 20.4158 71.1728 20.1124 70.638 19.8982C71.2782 19.6789 71.7373 19.3044 72.0152 18.7746C72.293 18.2449 72.4324 17.7057 72.4324 17.1578C72.4324 16.7035 72.3592 16.2986 72.212 15.944C72.0648 15.5894 71.8662 15.2652 71.6136 14.973C71.3096 14.6184 70.9385 14.3488 70.5004 14.1668C70.0623 13.9838 69.4368 13.885 68.6241 13.8694H62.9353V25.4129H65.3037V20.8866H67.8062C68.5196 20.8866 69.0065 21.0097 69.2661 21.255C69.5257 21.5004 69.6607 21.9911 69.6711 22.7271L69.6868 23.8004C69.6921 24.1402 69.726 24.4714 69.7887 24.7948C69.8201 24.9517 69.8724 25.1581 69.9464 25.4138H72.6136V25.1242C72.3827 24.9829 72.2355 24.7636 72.1728 24.4662L72.1719 24.4636ZM69.2766 18.7859C69.0039 18.9116 68.5945 18.974 68.0492 18.974H65.3028V15.8729H68.1198C68.6442 15.8729 69.0379 15.9405 69.3001 16.0767C69.767 16.3168 70.0004 16.7867 70.0004 17.4863C70.0004 18.134 69.7591 18.5674 69.2766 18.7868V18.7859Z" fill="#282828"/>
<path d="M81.3615 20.9629C81.3615 21.757 81.2674 22.3361 81.0784 22.7011C80.7849 23.3487 80.1473 23.6721 79.1665 23.6721C78.1856 23.6721 77.5402 23.3487 77.2467 22.7011C77.0576 22.3361 76.9636 21.7561 76.9636 20.9629V13.8677H74.5011V20.9629C74.5011 22.1896 74.6927 23.145 75.0751 23.829C75.7937 25.0818 77.1578 25.7086 79.1665 25.7086C81.1751 25.7086 82.5366 25.0818 83.2499 23.829C83.6323 23.145 83.824 22.1896 83.824 20.9629V13.8677H81.3615V20.9629V20.9629Z" fill="#282828"/>
<path d="M94.0371 19.679C93.5911 19.3296 92.9299 19.0496 92.0545 18.8406L90.0564 18.3629C89.2855 18.18 88.782 18.0214 88.5459 17.8853C88.1784 17.6815 87.9954 17.3737 87.9954 16.9611C87.9954 16.512 88.1818 16.1626 88.5538 15.9121C88.9266 15.6615 89.4248 15.5358 90.0485 15.5358C90.6095 15.5358 91.079 15.6329 91.457 15.8254C92.0232 16.1175 92.3281 16.6108 92.3699 17.3053H94.6991C94.6572 16.0785 94.2043 15.1422 93.342 14.498C92.4787 13.853 91.4361 13.5305 90.214 13.5305C88.7506 13.5305 87.6409 13.8721 86.8857 14.5561C86.1305 15.2402 85.7525 16.0993 85.7525 17.1327C85.7525 18.2658 86.1436 19.0981 86.9249 19.6313C87.3866 19.9495 88.2202 20.2451 89.4274 20.5165L90.6548 20.7904C91.3734 20.9474 91.9004 21.1268 92.2366 21.3305C92.572 21.5395 92.7401 21.8343 92.7401 22.2157C92.7401 22.8685 92.4021 23.315 91.7253 23.5552C91.3682 23.6809 90.9039 23.7433 90.3325 23.7433C89.3778 23.7433 88.7036 23.5057 88.3108 23.0307C88.0956 22.7697 87.951 22.3752 87.8778 21.8481H85.5643C85.5643 23.0489 85.9972 23.993 86.8631 24.6787C87.7289 25.3654 88.917 25.7087 90.4274 25.7087C91.9378 25.7087 93.0519 25.3602 93.862 24.6631C94.6721 23.9661 95.078 23.0905 95.078 22.0354C95.078 20.9803 94.7322 20.2208 94.0397 19.6781L94.0371 19.679Z" fill="#282828"/>
<path d="M104.746 14.7606C104.053 14.165 103.125 13.8677 101.96 13.8677H96.9089V25.4112H99.3165V21.2602H101.779C103.064 21.2602 104.053 20.9785 104.746 20.4141C105.438 19.8497 105.784 18.8874 105.784 17.5245C105.784 16.277 105.438 15.3554 104.746 14.7598V14.7606ZM102.912 18.8562C102.593 19.1327 102.147 19.2714 101.574 19.2714H99.3156V15.873H101.574C102.146 15.873 102.591 16.0013 102.908 16.257C103.225 16.5128 103.383 16.941 103.383 17.541C103.383 18.1409 103.226 18.5796 102.911 18.857L102.912 18.8562Z" fill="#282828"/>
<path d="M109.719 13.8677L105.58 25.4112H108.114L108.916 23.0384H113.189L113.936 25.4112H116.564L112.457 13.8677H109.719V13.8677ZM109.569 21.0487L111.064 16.5067L112.511 21.0487H109.569Z" fill="#282828"/>
<path d="M122.843 15.7083C123.709 15.7083 124.361 15.9589 124.802 16.46C125.048 16.7417 125.25 17.1596 125.408 17.7127H127.831C127.795 16.9923 127.527 16.2745 127.029 15.5592C126.127 14.2857 124.7 13.6484 122.749 13.6484C121.291 13.6484 120.089 14.1235 119.145 15.0737C118.059 16.1652 117.516 17.7179 117.516 19.7336C117.516 21.5976 117.994 23.0645 118.948 24.1352C119.903 25.2007 121.215 25.733 122.883 25.733C124.231 25.733 125.338 25.3385 126.203 24.5504C127.064 23.7624 127.599 22.7385 127.809 21.4805H125.409C125.246 22.0761 125.041 22.5218 124.795 22.82C124.349 23.3731 123.701 23.6505 122.852 23.6505C122.002 23.6505 121.339 23.328 120.802 22.683C120.265 22.038 119.995 21.0687 119.995 19.7735C119.995 18.4783 120.25 17.4778 120.758 16.7704C121.267 16.0629 121.962 15.7092 122.844 15.7092L122.843 15.7083Z" fill="#282828"/>
<path d="M132.079 23.3366V20.3681H137.713V18.3629H132.079V15.912H138.217V13.8677H129.711V25.4112H138.5V23.3366H132.079Z" fill="#282828"/>
<path d="M44.8113 12.7421L34.1479 6.59792C33.8918 6.45054 33.5756 6.45054 33.3195 6.59792L23.7484 12.1048V1.09187C23.7484 0.797101 23.5907 0.525743 23.3346 0.37836C23.0786 0.230977 22.7632 0.230977 22.5071 0.37836L0.91375 12.8036C0.657661 12.951 0.5 13.2224 0.5 13.5163V25.9623C0.5 26.2562 0.65766 26.5276 0.912879 26.675L11.6138 32.8408C11.7418 32.9145 11.8855 32.9517 12.0284 32.9517C12.1712 32.9517 12.3141 32.9145 12.4421 32.8408L22.0934 27.2879V38.3347C22.0934 38.6295 22.2511 38.9008 22.5071 39.0482C22.6352 39.1219 22.778 39.1583 22.9209 39.1583C23.0637 39.1583 23.2066 39.121 23.3346 39.0473L44.8104 26.6906C45.0665 26.5432 45.2242 26.2718 45.2242 25.9779V13.4547C45.2242 13.1608 45.0665 12.8894 44.8113 12.7421V12.7421ZM11.2889 30.7505L2.155 25.4881V14.9051L11.2889 20.1676V30.7505ZM12.166 18.77L3.01473 13.4972L22.0943 2.51975V13.0576L12.166 18.77V18.77ZM12.9439 30.6508V20.2248L33.7333 8.26248L42.787 13.479L12.9439 30.65V30.6508ZM23.7493 36.9085V26.3368L33.6375 20.647L42.8183 25.9363L23.7493 36.9085V36.9085ZM43.5701 24.4668L35.2907 19.6959L43.5701 14.932V24.4659V24.4668Z" fill="#282828"/>
</g>
<defs>
<clipPath id="clip0_2670_9504">
<rect width="138" height="38.8909" fill="white" transform="translate(0.5 0.268555)"/>
</clipPath>
</defs>
</svg>
